<?xml version="1.0" standalone="no"?>
<!DOCTYPE svg PUBLIC "-//W3C//DTD SVG 20010904//EN"
 "http://www.w3.org/TR/2001/REC-SVG-20010904/DTD/svg10.dtd">
<svg version="1.0" xmlns="http://www.w3.org/2000/svg"
 width="256.000000pt" height="289.000000pt" viewBox="0 0 256.000000 289.000000"
 preserveAspectRatio="xMidYMid meet">

<g transform="translate(0.000000,289.000000) scale(0.100000,-0.100000)"
fill="currentColor" stroke="none">
<path d="M1095 2754 c-269 -42 -481 -146 -676 -332 -99 -94 -159 -172 -209
-272 -31 -61 -73 -171 -68 -175 35 -26 617 -429 625 -432 8 -3 433 188 470
212 2 1 -94 68 -212 150 -118 81 -221 158 -229 171 -55 83 -15 184 96 240 91
46 167 58 358 58 155 -1 186 -4 275 -27 116 -31 299 -118 364 -173 47 -41 71
-86 71 -134 0 -79 -59 -126 -296 -235 -82 -37 -275 -126 -429 -198 -154 -71
-309 -143 -345 -159 -36 -17 -169 -81 -295 -143 -253 -124 -308 -163 -376
-268 -61 -94 -82 -172 -77 -282 3 -79 8 -101 36 -158 83 -168 307 -332 573
-421 143 -48 264 -66 447 -66 405 0 687 104 943 348 99 94 159 172 209 272 31
61 73 171 68 175 -35 26 -617 429 -625 432 -8 3 -433 -188 -470 -212 -2 -1 94
-68 212 -150 118 -81 221 -158 229 -171 55 -83 15 -184 -96 -240 -91 -46 -167
-58 -358 -58 -155 1 -186 4 -275 27 -116 31 -299 118 -364 173 -47 41 -71 86
-71 134 0 79 59 126 296 235 82 37 275 126 429 198 154 71 309 143 345 159 36
17 169 81 295 143 253 124 308 163 376 268 61 94 82 172 77 282 -3 79 -8 101
-36 158 -105 213 -441 418 -772 472 -118 19 -389 18 -515 -1z"/>
</g>
</svg>
