<svg width="25" height="20" viewBox="0 0 25 20" fill="none" xmlns="http://www.w3.org/2000/svg">
<g clip-path="url(#clip0_51_209)">
<path d="M16.0193 0.5C15.775 0.934882 15.5556 1.38477 15.3562 1.84465C13.4616 1.55973 11.5322 1.55973 9.63259 1.84465C9.43815 1.38477 9.21378 0.934882 8.9695 0.5C7.18959 0.80493 5.45454 1.33978 3.80926 2.09458C0.548587 6.93831 -0.333887 11.6571 0.104863 16.3108C2.01439 17.7255 4.15328 18.8052 6.43175 19.495C6.94528 18.8052 7.39899 18.0704 7.78788 17.3056C7.04998 17.0307 6.33702 16.6857 5.65398 16.2859C5.83346 16.1559 6.00797 16.0209 6.17748 15.891C10.181 17.7805 14.8178 17.7805 18.8263 15.891C18.9958 16.0309 19.1703 16.1659 19.3498 16.2859C18.6667 16.6907 17.9538 17.0307 17.2109 17.3106C17.5998 18.0754 18.0535 18.8102 18.567 19.5C20.8454 18.8102 22.9843 17.7355 24.894 16.3208C25.4124 10.9223 24.0065 6.24348 21.1795 2.09958C19.5392 1.34479 17.8042 0.809918 16.0243 0.509995L16.0193 0.5ZM8.34627 13.4466C7.11481 13.4466 6.09273 12.3269 6.09273 10.9423C6.09273 9.55764 7.07491 8.43292 8.3413 8.43292C9.60768 8.43292 10.6148 9.56262 10.5948 10.9423C10.5749 12.3219 9.60269 13.4466 8.34627 13.4466ZM16.6525 13.4466C15.416 13.4466 14.4039 12.3269 14.4039 10.9423C14.4039 9.55764 15.3861 8.43292 16.6525 8.43292C17.9189 8.43292 18.921 9.56262 18.9011 10.9423C18.8811 12.3219 17.9089 13.4466 16.6525 13.4466Z" fill="#5662F6"/>
</g>
<defs>
<clipPath id="clip0_51_209">
<rect width="25" height="19" fill="white" transform="translate(0 0.5)"/>
</clipPath>
</defs>
</svg>
